<?xml version="1.0" standalone="no"?>
<!DOCTYPE svg PUBLIC "-//W3C//DTD SVG 20010904//EN"
 "http://www.w3.org/TR/2001/REC-SVG-20010904/DTD/svg10.dtd">
<svg version="1.0" xmlns="http://www.w3.org/2000/svg"
 width="72.000000pt" height="72.000000pt" viewBox="0 0 72.000000 72.000000"
 preserveAspectRatio="xMidYMid meet">
<metadata>
Created by potrace 1.14, written by Peter Selinger 2001-2017
</metadata>
<g transform="translate(0.000000,72.000000) scale(0.100000,-0.100000)"
fill="#000000" stroke="none">
<path d="M470 647 c-44 -11 -96 -50 -120 -90 -17 -28 -23 -30 -75 -31 -52 -1
-59 -4 -91 -38 -20 -22 -34 -48 -34 -63 0 -15 -7 -28 -17 -32 -128 -46 -151
-214 -41 -296 38 -29 82 -33 308 -32 171 1 210 4 237 18 28 15 53 44 53 61 0
9 -57 -2 -81 -15 -16 -8 -86 -12 -234 -12 -176 0 -216 3 -243 17 -31 16 -69
71 -54 79 7 5 140 2 182 -4 28 -5 40 22 20 46 -9 11 -17 12 -32 4 -23 -13
-168 -18 -175 -7 -7 13 28 65 57 82 32 18 140 22 171 5 15 -7 24 -7 35 2 34
28 3 70 -36 49 -10 -6 -37 -10 -59 -10 -37 0 -41 3 -41 24 0 55 69 92 116 61
14 -9 46 -15 78 -15 30 0 58 -5 61 -10 10 -16 45 8 45 30 0 21 -42 40 -48 21
-6 -18 -72 -14 -72 4 0 25 30 63 67 86 64 40 163 16 191 -46 8 -17 20 -25 37
-25 14 0 25 5 25 10 0 14 -29 71 -44 86 -40 39 -123 58 -186 41z"/>
<path d="M651 481 c-8 -5 -11 -49 -9 -147 l3 -139 28 -3 28 -3 -3 147 c-3 126
-5 147 -19 149 -9 2 -22 0 -28 -4z"/>
<path d="M410 401 c0 -3 13 -26 29 -50 33 -49 33 -43 -20 -128 l-20 -32 28 3
c15 2 31 4 35 5 3 0 15 15 26 32 l19 31 22 -35 c17 -28 28 -35 51 -35 17 1 30
3 30 4 0 2 -15 28 -34 57 l-35 54 30 44 c36 55 36 60 0 57 -20 -1 -34 -11 -46
-31 l-18 -29 -19 30 c-14 23 -26 30 -49 30 -16 -1 -29 -4 -29 -7z"/>
</g>
</svg>
